<?xml version="1.0" encoding="UTF-8"?><svg style="background-color: transparent; background-color: transparent;" version="1.1" viewBox="0 0 1460 1460" width="1024" height="1024" xmlns="http://www.w3.org/2000/svg"><g transform="translate(0 68)"><path transform="translate(1257,132)" d="m0 0h62l34 1 6 3 4 4 1 7-8 16-28 48-30 52-14 24-30 52-11 19-8 14-14 24-28 49-9 15-30 52-22 38-14 24-13 23-15 26-17 29-28 49-9 15-8 14-14 24-14 25-6 9-6 11-9 16-14 24-16 28-14 24-9 16-10 17-14 24-11 19-13 23-13 22-16 28-15 26-10 17-9 16-14 24-15 26-14 24-15 26-16 28-10 16-4 5-3 1h-8l-8-7-10-17-9-16-13-23-128-224-14-25-14-24-14-25-10-17-13-23-15-26-13-23-14-24-15-27-15-26-112-196-14-25-13-23-10-17-9-16-12-21-15-26-36-63-2-5v-7l4-6 5-2h306l7 8 15 26 14 25 14 24 8 15v10l-4 5-4 2-154 1-8 1-4 10 6 11 28 49 14 25 11 19 15 26 13 23 14 25 14 24 15 27 10 17 14 25 14 24 14 25 14 24 14 25 14 24 15 27 15 26 13 23 14 24 13 24 10 17 16 28 6 10 2 2h10l5-5 6-10 6-11 6-9 6-11 14-25 13-22 16-28 14-24 14-25 9-15 12-21 14-24 16-28 11-19 14-24 15-26 16-28 13-22 12-21 15-26 16-28 10-17 12-21 14-24 16-28 15-26 11-19 10-17 16-28 28-48 32-56 13-22 8-14 14-24 14-25 14-24 11-19 9-14 5-4 2-1z" fill="#000000"/><path transform="translate(160,132)" d="m0 0h964l27 1 5 3 2 4-1 7-14 24-15 27-10 17-16 27-6 6-3 1-160 1h-249l-4 1v8l12 23 12 20 13 23 16 28 13 23 9 16 32 56 14 25 14 24 11 20 12 21 14 25 14 24 15 27v10l-6 11-13 23-10 17-15 26-13 22-4 3h-7l-6-5-32-56-26-46-8-14-13-23-16-28-14-25-12-21-15-26-12-22-6-10-14-25-14-24-11-20-12-21-15-26-16-28-14-25-12-21-5-8-3-2-383-1-6-3-8-11-15-28-13-23-13-25-6-12-1-6 3-5 2-2 5-1z" fill="#000000"/><path transform="translate(749,978)" d="m0 0h1v5 2l2 5 5 22 8 43 5 24 5 25 4 23 2 12 1 5-3-1-15-30-11-20-8-16-10-19-8-14-5-10-5-9-3-7-2-4 3 2h10l5-5 6-10 6-11 6-9z" fill="#000000"/><path transform="translate(317,332)" d="m0 0 4 1 11 10 2 1v2l4 2 10 9 10 8 15 15 8 7 9 9 8 7 13 12 8 7 5 5 3 1 126 1v1l-154 1-8 1-2 5-4 5-12-20-45-72-7-10-3-6z" fill="#000000"/><path transform="translate(541,249)" d="m0 0h143l-4 2v8l11 21-1 6-8-1-76-19-25-6-24-6-15-3z" fill="#000000"/></g></svg>
