<?xml version="1.0" encoding="UTF-8"?>
<svg xmlns="http://www.w3.org/2000/svg" width="1000" height="1000" viewBox="0 0 1000 1000">
  <title>Monochrome car charger icon</title>
  <desc>Centered monochrome black outline of a wall-mounted EV charger with front socket flap.</desc>
  <g transform="translate(0,10)" fill="none" stroke="#000000" stroke-linecap="round" stroke-linejoin="round">

    <path d="
      M500 120
      L570 150
      L625 210
      L650 310
      L635 420
      L625 520
      L610 690
      L585 820
      L500 850
      L415 820
      L390 690
      L375 520
      L365 420
      L350 310
      L375 210
      L430 150
      Z"
      stroke-width="10"/>

    <path d="M500 120 L500 305" stroke-width="7"/>
    <path d="M430 150 L405 308 L375 420" stroke-width="6"/>
    <path d="M570 150 L595 308 L625 420" stroke-width="6"/>
    <path d="M405 308 L500 360 L595 308" stroke-width="6"/>

    <path d="M500 178 L500 272" stroke-width="12"/>

    <circle cx="500" cy="378" r="4" stroke-width="3"/>
    <path d="M492 378a8 8 0 0 1 16 0" stroke-width="2.5"/>
    <path d="M488 378a12 12 0 0 1 24 0" stroke-width="2"/>

    <g transform="translate(500,640)">
      <circle cx="0" cy="0" r="82" stroke-width="8"/>
      <circle cx="0" cy="0" r="56" stroke-width="4"/>
      <path d="M-22 -78 L-22 -98 L22 -98 L22 -78" stroke-width="8"/>
      <path d="M-72 -32 A79 79 0 0 0 -72 32" stroke-width="10"/>
      <path d="M72 -32 A79 79 0 0 1 72 32" stroke-width="10"/>
      <path d="M-12 76 Q0 96 12 76" stroke-width="8"/>
    </g>

    <path d="M392 690 L500 735 L608 690" stroke-width="5"/>
  </g>
</svg>
