<?xml version="1.0" encoding="UTF-8"?>
<svg version="1.1" viewBox="0 0 2048 2048" width="1024" height="1024" xmlns="http://www.w3.org/2000/svg" style="background-color: transparent">
  <g transform="translate(256 0)">

<path transform="translate(754,38)" d="m0 0h9l41 16 56 22 145 57 81 32 4 2 9 11 10 11 9 11 10 11 9 11 10 11 9 11 10 11 9 11 10 11 9 11 7 9 4 9 24 100 28 116 27 112 21 87 10 42-3 26-36 264-35 256-29 211-27 195-7 50-3 10-9 10-52 48-12 11-5 3-47 13-64 17-82 21-88 21-49 11h-16l-74-17-66-16-91-23-85-23-16-5-10-9-15-14-12-11-15-14-12-11-8-7-5-9-3-17-25-178-37-268-36-262-26-190-12-88 1-10 26-107 22-91 23-95 22-91 17-70 5-10 9-10 9-11 9-10 9-11 9-10 9-11 9-10 9-11 10-11 9-11 9-10 9-11 11-5 183-72 94-37z" fill="#D8D8D7"/>
<path transform="translate(1307,765)" d="m0 0h7v9l-29 213-37 271-28 204-34 246-8 57-3 10-9 10-52 48-12 11-5 3-47 13-64 17-82 21-88 21-49 11h-16l-74-17-66-16-91-23-85-23-16-5v-2l17 4 10 3 27 7 13 4 18 5 17 4 16 4 17 5 27 6 14 3 5 1 1-1 9-2 2-2 11-1 7-1 9 2 14-1 10-3 11-1 6 2 9 2 5 4 6 2h14l3-1 1-3 14-1 10 3 2 1h9l7-2 4-1 2-6-1-8-5-8-3-9-6-5-18-11-24-11-16-8-7-4-16-8-12-8-11-9-8-8-4-2-5-5-8-7-10-9-9-11-9-10-7-9-12-16-11-18v-2h-2l-6-9-8-18-3-12-3-17-1-14-1-3-2-25 1-21 2-14 1-8 2-21 4-20 5-17 5-13 8-16 8-14 10-14 12-14 15-15 14-11 3-3v-2l14-10 4-1-5 5 15-8 17-7h175l13 5 16 8-4-4 6 2 12 9 3 5 13 10 12 11 8 8 9 11 11 15 10 17 8 17 8 24 4 13 7 19 5 17 5 25 2 28-1 27-3 20-6 22-4 12-8 16-12 22-4 5-6 8-16 17-5 5-5 4-8 10-10 10-7 8-12 12-9 7-9 9-10 8-11 8-7 9-2 9-4 9-6 10-5 12-2 8-1 5 12 6 9-1 18-4 66-16 20-5 39-10 40-11 23-6 30-8 14-4h4l1-8 3-11 5-21 6-27 3-13 10-46 7-36 5-25 8-46 7-40 11-71 8-62 8-69 4-40 2-26 2-19 3-38 2-25 2-37 1-16 2-39 2-52 1-50v-28l1-21-1-109v-15l-1-23-1-18v-29l2-5 26-4 45-6 27-4z" fill="#A6A6A5"/>
<path transform="translate(1307,765)" d="m0 0h7v9l-29 213-37 271-28 204-34 246-8 57-3 10-9 10-52 48-12 11-5 3-47 13-64 17-82 21-46 11-4-1 3-2 43-10 48-12 39-10 40-11 23-6 30-8 14-4h4l1-8 3-11 5-21 6-27 3-13 10-46 7-36 5-25 8-46 7-40 11-71 8-62 8-69 4-40 2-26 2-19 3-38 2-25 2-37 1-16 2-39 2-52 1-50v-28l1-21-1-109v-15l-1-23-1-18v-29l2-5 26-4 45-6 27-4z" fill="#A7A7A6"/>
<path transform="translate(758,173)" d="m0 0 6 1 4 5 1 5v325l-3-4-5 2-2-1-1 4-9 1-1-18v-144l1-169 4-5z" fill="#D0F1E5"/>
<path transform="translate(694,1386)" d="m0 0h132l2 18 1 31 19 10 16 10 11 9 12 11 13 15 11 18 8 17 6 20 3 18v25l-2 16-6 21-8 18-11 18-11 13-9 10-11 9-12 9-15 9-15 7h-2l1 4v40l9-2-2 2-5 2h-4l-1-2-4 4-11 3-5 2-10 5-8 3h-3v-2l13-5 10-6 9-1 4-1 1-29v-18l5-5 16-7 16-10 14-11 15-15 11-15 10-18 6-15 4-15 2-11 1-13v-11l-2-19-5-19-6-15-8-15-10-14-11-12-9-9-18-13-14-8-12-6-2-2v-31l-1-18-124-1-1 50-5 4-16 8-16 10-11 9-15 15-11 15-10 18-6 15-4 15-2 13v29l3 18 6 19 7 15 8 14 7 9 9 10 11 11 13 10 19 11 15 7 1 2 1 49h-2l-2-2-5 1-2-1 1-2 3 1v-43l-21-10-14-9-13-10-20-20-12-17-11-21-7-21-3-18-1-20 2-20 4-17 7-19 8-15 11-16 12-13 9-9 13-10 18-11 15-7 1-37z" fill="#737272"/>
<path transform="translate(419,1844)" d="m0 0 17 4 10 3 27 7 13 4 18 5 17 4 16 4 17 5 1 2-8-1-83-22-43-12-2-1z" fill="#A7A7A6"/>
<path transform="translate(766,504)" d="m0 0 2 1v6l-5 5h-8l-5-5v-1h8l1-4 5-1z" fill="#A7A7A6"/>
<path transform="translate(419,1844)" d="m0 0 17 4 10 3 27 7 3 2-1 2-54-15-2-1z" fill="#A9A9A8"/>
<path transform="translate(765,677)" d="m0 0 5 3 4 6v11l-4 6-5 3-1-4 5-5 1-2v-7l-4-6-2-1z" fill="#A7A7A6"/>
<path transform="translate(750,678)" d="m0 0 4 1-6 8v9l5 6v3l-4-1-5-6-1-3v-7l3-6z" fill="#A7A7A6"/>
<path transform="translate(873,1397)" d="m0 0 8 2 8 5-4 2-2 3-4-1-7-6-1-4z" fill="#737272"/>
<path transform="translate(646,1397)" d="m0 0 3 1-1 4-7 6-3 1-6-3 2-4 8-4z" fill="#737272"/>
<path transform="translate(755,683)" d="m0 0 3 1-2 4-1 1v5l3 4-5 1-3-5 1-7z" fill="#A7A7A6"/>
<path transform="translate(760,684)" d="m0 0 5 1 3 5-1 6-5 4-2-1 2-4 1-1v-5l-3-3z" fill="#A7A7A6"/>
<path transform="translate(873,1381)" d="m0 0 6 2 12 9 1 2-5-1-9-6z" fill="#B4B4B3"/>
<path transform="translate(419,1844)" d="m0 0 17 4 6 3-3 1-20-6z" fill="#A8A8A7"/>

  </g>
</svg>
